<svg xmlns="http://www.w3.org/2000/svg" width="36.639" height="36.639" viewBox="0 0 36.639 36.639">
  <g id="Group_52720" data-name="Group 52720" transform="translate(23336 22551)">
    <g id="Group_52719" data-name="Group 52719" transform="translate(-23336 -22551)">
      <path id="Path_49820" data-name="Path 49820" d="M20.319,2A18.319,18.319,0,1,0,38.639,20.319,18.319,18.319,0,0,0,20.319,2Zm0,34.022a15.7,15.7,0,1,1,15.7-15.7A15.7,15.7,0,0,1,20.319,36.022ZM33.4,20.319A1.309,1.309,0,0,1,32.1,21.628H20.319a1.309,1.309,0,0,1-1.309-1.309V8.543a1.309,1.309,0,0,1,2.617,0V19.011H32.1A1.309,1.309,0,0,1,33.4,20.319Z" transform="translate(-2 -2)"/>
    </g>
  </g>
</svg>
