<svg xmlns="http://www.w3.org/2000/svg" width="23.045" height="27.732" viewBox="0 0 23.045 27.732">
  <g id="Group_52721" data-name="Group 52721" transform="translate(-14.6 -7.4)">
    <path id="Path_49821" data-name="Path 49821" d="M36.51,20.42A6.51,6.51,0,1,0,30,13.91,6.529,6.529,0,0,0,36.51,20.42ZM36.51,10A3.906,3.906,0,1,1,32.6,13.91,3.917,3.917,0,0,1,36.51,10Z" transform="translate(-10.387 0)"/>
    <path id="Path_49822" data-name="Path 49822" d="M15.9,63.6H36.343a1.306,1.306,0,0,0,1.3-1.3v-3.58A9.14,9.14,0,0,0,28.531,49.6H23.714A9.14,9.14,0,0,0,14.6,58.714v3.58A1.285,1.285,0,0,0,15.9,63.6Zm1.3-4.85a6.529,6.529,0,0,1,6.51-6.51h4.817a6.529,6.529,0,0,1,6.51,6.51v2.278H17.2Z" transform="translate(0 -28.464)"/>
  </g>
</svg>
