<svg xmlns="http://www.w3.org/2000/svg" width="31.299" height="27.031" viewBox="0 0 31.299 27.031">
  <g id="_3users-svgrepo-com" data-name="3users-svgrepo-com" transform="translate(-1 -3)">
    <path id="Path_1" data-name="Path 1" d="M7,10.113a7.113,7.113,0,1,1,7.113,7.113A7.113,7.113,0,0,1,7,10.113Zm7.113-4.268a4.268,4.268,0,1,0,4.268,4.268A4.268,4.268,0,0,0,14.113,5.845Z" transform="translate(2.536 0)" fill-rule="evenodd"/>
    <path id="Path_2" data-name="Path 2" d="M7.676,6.786A1.423,1.423,0,0,0,6.86,4.06,5.759,5.759,0,0,0,3,9.691a5.759,5.759,0,0,0,3.86,5.631A1.423,1.423,0,0,0,7.676,12.6a2.932,2.932,0,0,1-1.83-2.9A2.932,2.932,0,0,1,7.676,6.786Z" transform="translate(0.845 0.423)"/>
    <path id="Path_3" data-name="Path 3" d="M18.83,4.06a1.423,1.423,0,1,0-.815,2.726,2.932,2.932,0,0,1,1.83,2.9,2.932,2.932,0,0,1-1.83,2.9,1.423,1.423,0,0,0,.815,2.726,5.759,5.759,0,0,0,3.861-5.631A5.759,5.759,0,0,0,18.83,4.06Z" transform="translate(6.763 0.423)"/>
    <path id="Path_4" data-name="Path 4" d="M15.381,14a19.408,19.408,0,0,0-7.619,1.278C5.658,16.213,4,17.861,4,20.4a3.947,3.947,0,0,0,.573,2.14,4.509,4.509,0,0,0,2.042,1.671c1.72.778,4.476,1.168,8.767,1.168s7.047-.39,8.767-1.168a4.51,4.51,0,0,0,2.042-1.671,3.946,3.946,0,0,0,.573-2.14c0-2.541-1.658-4.189-3.762-5.124A19.408,19.408,0,0,0,15.381,14ZM6.845,20.4c0-1.016.572-1.857,2.072-2.523a16.7,16.7,0,0,1,6.465-1.033,16.7,16.7,0,0,1,6.464,1.033c1.5.666,2.072,1.507,2.072,2.523a1.131,1.131,0,0,1-.138.629,1.728,1.728,0,0,1-.8.59c-1.125.509-3.349.915-7.594.915s-6.469-.406-7.594-.915a1.729,1.729,0,0,1-.8-.59A1.131,1.131,0,0,1,6.845,20.4Z" transform="translate(1.268 4.649)" fill-rule="evenodd"/>
    <path id="Path_5" data-name="Path 5" d="M19.148,13.79a1.423,1.423,0,0,1,1.907-.642,6,6,0,0,1,3.636,5.542,1.423,1.423,0,1,1-2.845,0A3.175,3.175,0,0,0,19.79,15.7,1.423,1.423,0,0,1,19.148,13.79Z" transform="translate(7.608 4.227)"/>
    <path id="Path_6" data-name="Path 6" d="M5.9,15.7a1.423,1.423,0,0,0-1.265-2.549A6,6,0,0,0,1,18.691a1.423,1.423,0,1,0,2.845,0A3.175,3.175,0,0,1,5.9,15.7Z" transform="translate(0 4.227)"/>
  </g>
</svg>
