<svg xmlns="http://www.w3.org/2000/svg" height="20" viewBox="0 -960 960 960" width="20"><path d="M258-265.5q54.5-34.5 107-51T480-333q62.5 0 115 16.5t107.5 51q41.5-41.5 64.25-96.135 22.75-54.635 22.75-118.438 0-128.602-90.48-219.015Q608.541-789.5 479.77-789.5q-128.77 0-219.02 90.412-90.25 90.413-90.25 219.015 0 63.803 22.75 118.438Q216-307 258-265.5ZM480.111-435Q431-435 397-468.889q-34-33.89-34-83Q363-601 396.889-635q33.89-34 83-34Q529-669 563-635.111q34 33.89 34 83Q597-503 563.111-469q-33.89 34-83 34Zm.165 282q-67.683 0-127.591-25.263-59.909-25.263-104.547-70Q203.5-293 178.25-352.796 153-412.591 153-480.458q0-68.449 25.263-127.607 25.263-59.159 70-103.797Q293-756.5 352.796-781.75 412.591-807 480.458-807q68.449 0 127.607 25.263 59.159 25.263 103.797 70Q756.5-667 781.75-607.688 807-548.377 807-480.276q0 67.683-25.263 127.591-25.263 59.909-70 104.547Q667-203.5 607.688-178.25 548.377-153 480.276-153Z"/></svg>